<?xml version="1.0" encoding="UTF-8" standalone="no"?>
<!-- Created with Inkscape (http://www.inkscape.org/) -->

<svg
   xmlns:dc="http://purl.org/dc/elements/1.1/"
   xmlns:cc="http://creativecommons.org/ns#"
   xmlns:rdf="http://www.w3.org/1999/02/22-rdf-syntax-ns#"
   xmlns:svg="http://www.w3.org/2000/svg"
   xmlns="http://www.w3.org/2000/svg"
   xmlns:xlink="http://www.w3.org/1999/xlink"
   xmlns:sodipodi="http://sodipodi.sourceforge.net/DTD/sodipodi-0.dtd"
   xmlns:inkscape="http://www.inkscape.org/namespaces/inkscape"
   width="128"
   height="128"
   id="svg3767"
   version="1.1"
   inkscape:version="0.48.5 r10040"
   sodipodi:docname="ico_repay_rew_off.svg">
  <defs
     id="defs3769">
    <clipPath
       clipPathUnits="userSpaceOnUse"
       id="clipPath2988">
      <path
         style="fill:none;stroke:#000000;stroke-width:1px;stroke-linecap:butt;stroke-linejoin:miter;stroke-opacity:1"
         d="m 569.13707,314.503 26.84608,655.0445 93.96131,69.7999 612.09084,-263.0917 c 0,0 69.7998,-195.97643 59.0614,-201.34565 -10.7385,-5.36922 -566.4525,-324.83766 -566.4525,-324.83766 l -182.55339,21.47687 z"
         id="path2990"
         inkscape:connector-curvature="0" />
    </clipPath>
    <clipPath
       clipPathUnits="userSpaceOnUse"
       id="clipPath3009">
      <path
         style="fill:none;stroke:#000000;stroke-width:1px;stroke-linecap:butt;stroke-linejoin:miter;stroke-opacity:1"
         d="m 639.72881,270.77966 0,775.45764 L 1357.2534,631.97427 639.23819,217.42799 z"
         id="path3011"
         inkscape:connector-curvature="0" />
    </clipPath>
    <clipPath
       clipPathUnits="userSpaceOnUse"
       id="clipPath3802">
      <rect
         style="fill:none;stroke:#000000;stroke-width:5.79035282;stroke-miterlimit:4;stroke-opacity:1;stroke-dasharray:none"
         id="rect3804"
         width="647.21301"
         height="717.4895"
         x="644.04382"
         y="278.01328" />
    </clipPath>
    <linearGradient
       inkscape:collect="always"
       xlink:href="#linearGradient3929"
       id="linearGradient3935"
       x1="-846.99457"
       y1="848.50134"
       x2="7882.6704"
       y2="1220.3998"
       gradientUnits="userSpaceOnUse"
       gradientTransform="translate(-18.634748,69.177544)" />
    <linearGradient
       id="linearGradient3929">
      <stop
         style="stop-color:#ffffff;stop-opacity:0.68627453;"
         offset="0"
         id="stop3931" />
      <stop
         style="stop-color:#ffffff;stop-opacity:0;"
         offset="1"
         id="stop3933" />
    </linearGradient>
    <filter
       color-interpolation-filters="sRGB"
       inkscape:collect="always"
       id="filter3945"
       x="-0.0070301555"
       width="1.0140603"
       y="-0.3884618"
       height="1.7769237">
      <feGaussianBlur
         inkscape:collect="always"
         stdDeviation="8.7831373"
         id="feGaussianBlur3947" />
    </filter>
    <linearGradient
       y2="1220.3998"
       x2="7882.6704"
       y1="848.50134"
       x1="-846.99457"
       gradientTransform="translate(-18.634748,69.177544)"
       gradientUnits="userSpaceOnUse"
       id="linearGradient3033"
       xlink:href="#linearGradient3929"
       inkscape:collect="always" />
    <filter
       inkscape:collect="always"
       id="filter4357">
      <feGaussianBlur
         inkscape:collect="always"
         stdDeviation="0.61439999"
         id="feGaussianBlur4359" />
    </filter>
    <clipPath
       clipPathUnits="userSpaceOnUse"
       id="clipPath3802-1">
      <rect
         style="fill:none;stroke:#000000;stroke-width:5.79035282;stroke-miterlimit:4;stroke-opacity:1;stroke-dasharray:none"
         id="rect3804-7"
         width="647.21301"
         height="717.4895"
         x="644.04382"
         y="278.01328" />
    </clipPath>
    <clipPath
       clipPathUnits="userSpaceOnUse"
       id="clipPath3802-1-1">
      <rect
         style="fill:none;stroke:#000000;stroke-width:5.79035282;stroke-miterlimit:4;stroke-opacity:1;stroke-dasharray:none"
         id="rect3804-7-7"
         width="647.21301"
         height="717.4895"
         x="644.04382"
         y="278.01328" />
    </clipPath>
  </defs>
  <sodipodi:namedview
     id="base"
     pagecolor="#ffffff"
     bordercolor="#666666"
     borderopacity="1.0"
     inkscape:pageopacity="0.0"
     inkscape:pageshadow="2"
     inkscape:zoom="2.8"
     inkscape:cx="-25.071429"
     inkscape:cy="53.162104"
     inkscape:document-units="px"
     inkscape:current-layer="layer1"
     showgrid="false"
     inkscape:showpageshadow="false"
     inkscape:window-width="1920"
     inkscape:window-height="1005"
     inkscape:window-x="-9"
     inkscape:window-y="-9"
     inkscape:window-maximized="1" />
  <metadata
     id="metadata3772">
    <rdf:RDF>
      <cc:Work
         rdf:about="">
        <dc:format>image/svg+xml</dc:format>
        <dc:type
           rdf:resource="http://purl.org/dc/dcmitype/StillImage" />
        <dc:title></dc:title>
      </cc:Work>
    </rdf:RDF>
  </metadata>
  <g
     inkscape:label="Ebene 1"
     inkscape:groupmode="layer"
     id="layer1"
     transform="translate(0,-924.36218)">
    <rect
       style="fill:none;stroke:#ffffff;stroke-width:5.11999988999999990;stroke-miterlimit:4;stroke-opacity:1;stroke-dasharray:none;opacity:0.5;filter:url(#filter4357)"
       id="rect3775"
       width="122.88"
       height="122.88"
       x="2.5599999"
       y="926.92218" />
    <path
       transform="matrix(0.04644285,0,0,0.85365192,17.663712,-115.57843)"
       style="fill:url(#linearGradient3033);fill-opacity:1;fill-rule:nonzero;stroke:#000000;stroke-width:0;stroke-miterlimit:4;stroke-opacity:1;filter:url(#filter3945)"
       d="m -249.44031,1229.9779 2998.44441,0 c -766.6884,54.2497 -2046.65296,27.6464 -2998.44441,54.2641 z"
       id="rect3917"
       inkscape:connector-curvature="0"
       sodipodi:nodetypes="cccc" />
    <g
       id="g3030"
       transform="matrix(0.86126536,0,0,0.87031821,22.001066,128.14994)"
       style="fill:#ffffff;stroke:#000000;stroke-width:1.34676253;stroke-miterlimit:4;stroke-opacity:1;stroke-dasharray:none">
      <path
         sodipodi:nodetypes="sccscsscccs"
         clip-path="url(#clipPath3802-1)"
         d="m 1288.678,637.8305 c 0,24.66667 -11,43.33333 -33,56 l -512.00003,288 c -9.33333,5.33333 -19.66667,8 -31,8 -11.33333,0 -22,-3 -32,-9 -21.33333,-12 -32,-30.33333 -32,-55 l 0,-576 c 0,-24.66667 10.66667,-43 32,-55 20.66667,-13.33333 41.66667,-13.66667 63,-1 l 512.00003,288 c 22,12.66667 33,31.33333 33,56 z"
         id="path2993"
         inkscape:connector-curvature="0"
         style="fill:#ffffff;stroke:#000000;stroke-width:10.92554598;stroke-miterlimit:4;stroke-opacity:1;stroke-dasharray:none"
         transform="matrix(0.12978725,0,0,0.11707488,-61.588675,913.81381)" />
      <path
         sodipodi:nodetypes="sccscsscccs"
         clip-path="url(#clipPath3802-1-1)"
         d="m 1288.678,637.8305 c 0,24.66667 -11,43.33333 -33,56 l -512.00003,288 c -9.33333,5.33333 -19.66667,8 -31,8 -11.33333,0 -22,-3 -32,-9 -21.33333,-12 -32,-30.33333 -32,-55 l 0,-576 c 0,-24.66667 10.66667,-43 32,-55 20.66667,-13.33333 41.66667,-13.66667 63,-1 l 512.00003,288 c 22,12.66667 33,31.33333 33,56 z"
         id="path2993-4"
         inkscape:connector-curvature="0"
         style="fill:#ffffff;stroke:#000000;stroke-width:10.92554598;stroke-miterlimit:4;stroke-opacity:1;stroke-dasharray:none"
         transform="matrix(0.12978725,0,0,0.11707488,-91.79348,913.7618)" />
    </g>
  </g>
</svg>
