<?xml version="1.0" encoding="UTF-8" standalone="no"?>
<svg
   xmlns:dc="http://purl.org/dc/elements/1.1/"
   xmlns:cc="http://creativecommons.org/ns#"
   xmlns:rdf="http://www.w3.org/1999/02/22-rdf-syntax-ns#"
   xmlns:svg="http://www.w3.org/2000/svg"
   xmlns="http://www.w3.org/2000/svg"
   xmlns:sodipodi="http://sodipodi.sourceforge.net/DTD/sodipodi-0.dtd"
   xmlns:inkscape="http://www.inkscape.org/namespaces/inkscape"
   width="3.55511in"
   height="3.55511in"
   viewBox="0 0 256 256"
   id="svg2"
   version="1.1"
   inkscape:version="0.48.5 r10040"
   sodipodi:docname="ico_timer_active.svg">
  <metadata
     id="metadata9">
    <rdf:RDF>
      <cc:Work
         rdf:about="">
        <dc:format>image/svg+xml</dc:format>
        <dc:type
           rdf:resource="http://purl.org/dc/dcmitype/StillImage" />
        <dc:title></dc:title>
      </cc:Work>
    </rdf:RDF>
  </metadata>
  <defs
     id="defs7" />
  <sodipodi:namedview
     pagecolor="#ffffff"
     bordercolor="#666666"
     borderopacity="1"
     objecttolerance="10"
     gridtolerance="10"
     guidetolerance="10"
     inkscape:pageopacity="0"
     inkscape:pageshadow="2"
     inkscape:window-width="1920"
     inkscape:window-height="1005"
     id="namedview5"
     showgrid="false"
     inkscape:zoom="4.1724529"
     inkscape:cx="129.59511"
     inkscape:cy="144.50265"
     inkscape:window-x="-9"
     inkscape:window-y="-9"
     inkscape:window-maximized="1"
     inkscape:current-layer="svg2" />
  <path
     id="Auswahl"
     fill="none"
     stroke="black"
     stroke-width="1"
     d="M 202.00,33.69            C 204.95,34.52 208.41,36.95 211.00,38.67              217.48,42.96 228.82,48.56 226.35,58.00              225.23,62.28 219.56,70.21 216.86,74.00              216.86,74.00 202.00,96.00 202.00,96.00              202.00,96.00 143.67,182.00 143.67,182.00              143.67,182.00 126.00,208.00 126.00,208.00              122.35,213.47 119.47,218.83 113.00,221.39              102.95,225.36 94.54,217.51 88.00,211.00              88.00,211.00 43.00,166.00 43.00,166.00              36.26,159.26 25.84,151.37 32.70,141.00              34.47,138.33 38.62,134.38 41.00,132.00              44.63,128.38 48.75,123.58 54.00,122.57              59.18,121.57 63.40,124.80 67.00,128.09              67.00,128.09 85.00,146.00 85.00,146.00              85.00,146.00 98.00,158.96 98.00,158.96              99.89,160.69 101.98,162.99 104.68,161.37              106.28,160.41 109.18,155.73 110.33,154.00              110.33,154.00 122.42,136.00 122.42,136.00              122.42,136.00 170.67,65.00 170.67,65.00              176.12,56.82 186.96,37.97 195.00,33.69              197.76,33.10 199.17,32.81 202.00,33.69 Z"
     style="fill:#333333;fill-opacity:1;stroke:none" />
</svg>
