<?xml version="1.0" encoding="UTF-8" standalone="no"?>
<!-- Created with Inkscape (http://www.inkscape.org/) -->

<svg
   xmlns:dc="http://purl.org/dc/elements/1.1/"
   xmlns:cc="http://creativecommons.org/ns#"
   xmlns:rdf="http://www.w3.org/1999/02/22-rdf-syntax-ns#"
   xmlns:svg="http://www.w3.org/2000/svg"
   xmlns="http://www.w3.org/2000/svg"
   xmlns:sodipodi="http://sodipodi.sourceforge.net/DTD/sodipodi-0.dtd"
   xmlns:inkscape="http://www.inkscape.org/namespaces/inkscape"
   width="55"
   height="33"
   id="svg2"
   version="1.1"
   inkscape:version="0.48.5 r10040"
   sodipodi:docname="ico_channel_720_on.svg">
  <defs
     id="defs4">
    <clipPath
       clipPathUnits="userSpaceOnUse"
       id="clipPath3798">
      <rect
         style="fill:none;stroke:#000000;stroke-width:0.18911646;stroke-miterlimit:4;stroke-opacity:1;stroke-dasharray:none"
         id="rect3800"
         width="36.22723"
         height="25.702677"
         x="-371.17783"
         y="731.84326"
         transform="scale(-1,1)" />
    </clipPath>
    <clipPath
       clipPathUnits="userSpaceOnUse"
       id="clipPath3804">
      <rect
         style="fill:none;stroke:#000000;stroke-width:0.0918085;stroke-miterlimit:4;stroke-opacity:1;stroke-dasharray:none"
         id="rect3806"
         width="33.622112"
         height="17.081583"
         x="337.914"
         y="732.63666" />
    </clipPath>
  </defs>
  <sodipodi:namedview
     id="base"
     pagecolor="#ffffff"
     bordercolor="#666666"
     borderopacity="1.0"
     inkscape:pageopacity="0.0"
     inkscape:pageshadow="2"
     inkscape:zoom="11.099593"
     inkscape:cx="21.940422"
     inkscape:cy="1.145378"
     inkscape:document-units="px"
     inkscape:current-layer="g3797"
     showgrid="false"
     inkscape:window-width="1920"
     inkscape:window-height="1005"
     inkscape:window-x="-9"
     inkscape:window-y="-9"
     inkscape:window-maximized="1"
     inkscape:showpageshadow="false" />
  <metadata
     id="metadata7">
    <rdf:RDF>
      <cc:Work
         rdf:about="">
        <dc:format>image/svg+xml</dc:format>
        <dc:type
           rdf:resource="http://purl.org/dc/dcmitype/StillImage" />
        <dc:title></dc:title>
      </cc:Work>
    </rdf:RDF>
  </metadata>
  <g
     inkscape:label="Ebene 1"
     inkscape:groupmode="layer"
     id="layer1"
     transform="translate(0,-1019.3622)">
    <g
       id="g3797"
       transform="translate(-329.62604,329.2233)">
      <rect
         y="692.09369"
         x="331.57071"
         height="29.05476"
         width="51.060802"
         id="rect2998"
         style="fill:none;stroke:#fcc024;stroke-width:3.94311023;stroke-opacity:1" />
      <g
         id="g3869"
         transform="matrix(1.0247757,0,0,1,-7.5183313,-36.720073)">
        <g
           style="font-size:446.42999268px;font-style:normal;font-variant:normal;font-weight:normal;font-stretch:normal;text-align:center;line-height:100%;letter-spacing:0px;word-spacing:0px;writing-mode:lr-tb;text-anchor:middle;fill:#fcc024;fill-opacity:1;font-family:Roadgeek 2005 Series C"
           id="routenum"
           transform="matrix(0.0830002,0,0,0.06778096,331.69501,723.67216)">
          <path
             style="fill:#fcc024;fill-opacity:1"
             id="path2988"
             inkscape:connector-curvature="0"
             d="m 239.06,365.45 v 74.554 H 192.185 V 365.45 H 43.975 v -28.125 l 148.21,-196.43 h 46.875 v 181.7 h 28.571 v 42.857 H 239.06 m -46.875,-155.36 -85.268,112.5 h 85.268 v -112.5" />
          <path
             style="fill:#fcc024;fill-opacity:1"
             id="path2990"
             inkscape:connector-curvature="0"
             d="m 525.9,341.34 c -2.3e-4,15.179 -2.53,29.167 -7.5893,41.964 -5.0597,12.798 -12.203,23.81 -21.429,33.036 -8.9288,8.9286 -19.792,16.071 -32.589,21.429 -12.5,5.0595 -26.339,7.5893 -41.518,7.5893 -12.202,0 -23.661,-1.9345 -34.375,-5.8036 -10.417,-3.869 -20.089,-9.2262 -29.018,-16.071 -8.631,-6.8452 -16.071,-15.179 -22.321,-25 -6.25,-9.8214 -10.863,-20.833 -13.839,-33.036 l 46.429,-13.393 c 3.5714,14.583 10.119,25.744 19.643,33.482 9.5237,7.7381 21.428,11.607 35.714,11.607 8.0356,4e-5 15.327,-1.3392 21.875,-4.0179 6.5475,-2.6785 12.053,-6.25 16.518,-10.714 4.7617,-4.7618 8.482,-10.268 11.161,-16.518 2.6784,-6.5475 4.0177,-13.69 4.0179,-21.429 -1.8e-4,-7.738 -1.4883,-15.03 -4.4643,-21.875 -2.9764,-6.8451 -7.143,-12.202 -12.5,-16.071 -1.7859,-1.1903 -3.4228,-2.0832 -4.9107,-2.6786 -1.1906,-0.89272 -2.8275,-1.488 -4.9107,-1.7857 -1.7859,-0.29749 -4.3156,-0.5951 -7.5893,-0.89286 -2.9763,-0.29748 -7.2918,-0.5951 -12.946,-0.89286 h -5.3571 v -48.214 1.3393 h 1.3393 0.89285 9.375 c 9.5237,1.9e-4 16.815,-2.5296 21.875,-7.5893 5.0594,-5.0593 7.5891,-12.351 7.5893,-21.875 -1.7e-4,-11.607 -4.1668,-21.131 -12.5,-28.571 -8.0359,-7.7378 -18.155,-11.607 -30.357,-11.607 -19.941,2.5e-4 -34.97,9.8217 -45.089,29.464 l -44.196,-16.518 c 7.7381,-19.047 19.345,-33.928 34.821,-44.643 15.774,-11.012 33.482,-16.518 53.125,-16.518 12.5,3.1e-4 24.256,2.3813 35.268,7.1429 11.309,4.7622 21.131,11.31 29.464,19.643 8.3331,8.3336 14.881,18.155 19.643,29.464 4.7617,11.012 7.1426,22.768 7.1428,35.268 -2.1e-4,8.9288 -1.1907,16.964 -3.5714,24.107 -2.3812,7.143 -6.8454,15.476 -13.393,25 5.6546,5.0597 10.268,9.9704 13.839,14.732 3.5712,4.4644 6.3986,9.2263 8.4822,14.286 2.3807,5.0596 4.0176,10.566 4.9107,16.518 0.89263,5.6549 1.3391,12.202 1.3393,19.643" />
        </g>
        <g
           transform="matrix(0.82978722,0,0,0.86440624,60.37252,101.6019)"
           style="fill:#fcc024;fill-opacity:1;stroke:none"
           id="g3865">
          <rect
             style="fill:#fcc024;fill-opacity:1;fill-rule:nonzero;stroke:none"
             id="rect3845"
             width="4.2343893"
             height="4.4145765"
             x="354.68854"
             y="736.02228" />
          <rect
             style="fill:#fcc024;fill-opacity:1;fill-rule:nonzero;stroke:none"
             id="rect3845-9"
             width="4.2343893"
             height="4.4145765"
             x="354.68854"
             y="744.89642" />
        </g>
      </g>
    </g>
  </g>
</svg>
