<?xml version="1.0" encoding="UTF-8" standalone="no"?>
<!-- Created with Inkscape (http://www.inkscape.org/) -->

<svg
   xmlns:dc="http://purl.org/dc/elements/1.1/"
   xmlns:cc="http://creativecommons.org/ns#"
   xmlns:rdf="http://www.w3.org/1999/02/22-rdf-syntax-ns#"
   xmlns:svg="http://www.w3.org/2000/svg"
   xmlns="http://www.w3.org/2000/svg"
   xmlns:xlink="http://www.w3.org/1999/xlink"
   xmlns:sodipodi="http://sodipodi.sourceforge.net/DTD/sodipodi-0.dtd"
   xmlns:inkscape="http://www.inkscape.org/namespaces/inkscape"
   width="128"
   height="128"
   id="svg3767"
   version="1.1"
   inkscape:version="0.48.5 r10040"
   sodipodi:docname="ico_repay_ffx3_active.svg">
  <defs
     id="defs3769">
    <clipPath
       clipPathUnits="userSpaceOnUse"
       id="clipPath2988">
      <path
         style="fill:none;stroke:#000000;stroke-width:1px;stroke-linecap:butt;stroke-linejoin:miter;stroke-opacity:1"
         d="m 569.13707,314.503 26.84608,655.0445 93.96131,69.7999 612.09084,-263.0917 c 0,0 69.7998,-195.97643 59.0614,-201.34565 -10.7385,-5.36922 -566.4525,-324.83766 -566.4525,-324.83766 l -182.55339,21.47687 z"
         id="path2990"
         inkscape:connector-curvature="0" />
    </clipPath>
    <clipPath
       clipPathUnits="userSpaceOnUse"
       id="clipPath3009">
      <path
         style="fill:none;stroke:#000000;stroke-width:1px;stroke-linecap:butt;stroke-linejoin:miter;stroke-opacity:1"
         d="m 639.72881,270.77966 0,775.45764 L 1357.2534,631.97427 639.23819,217.42799 z"
         id="path3011"
         inkscape:connector-curvature="0" />
    </clipPath>
    <clipPath
       clipPathUnits="userSpaceOnUse"
       id="clipPath3802">
      <rect
         style="fill:none;stroke:#000000;stroke-width:5.79035282;stroke-miterlimit:4;stroke-opacity:1;stroke-dasharray:none"
         id="rect3804"
         width="647.21301"
         height="717.4895"
         x="644.04382"
         y="278.01328" />
    </clipPath>
    <linearGradient
       inkscape:collect="always"
       xlink:href="#linearGradient3929"
       id="linearGradient3935"
       x1="-846.99457"
       y1="848.50134"
       x2="7882.6704"
       y2="1220.3998"
       gradientUnits="userSpaceOnUse"
       gradientTransform="translate(-18.634748,69.177544)" />
    <linearGradient
       id="linearGradient3929">
      <stop
         style="stop-color:#ffffff;stop-opacity:0.68627453;"
         offset="0"
         id="stop3931" />
      <stop
         style="stop-color:#ffffff;stop-opacity:0;"
         offset="1"
         id="stop3933" />
    </linearGradient>
    <filter
       color-interpolation-filters="sRGB"
       inkscape:collect="always"
       id="filter3945"
       x="-0.0070301555"
       width="1.0140603"
       y="-0.3884618"
       height="1.7769237">
      <feGaussianBlur
         inkscape:collect="always"
         stdDeviation="8.7831373"
         id="feGaussianBlur3947" />
    </filter>
    <linearGradient
       y2="1220.3998"
       x2="7882.6704"
       y1="848.50134"
       x1="-846.99457"
       gradientTransform="translate(-18.634748,69.177544)"
       gradientUnits="userSpaceOnUse"
       id="linearGradient3033"
       xlink:href="#linearGradient3929"
       inkscape:collect="always" />
    <filter
       inkscape:collect="always"
       id="filter4357">
      <feGaussianBlur
         inkscape:collect="always"
         stdDeviation="0.61439999"
         id="feGaussianBlur4359" />
    </filter>
    <clipPath
       clipPathUnits="userSpaceOnUse"
       id="clipPath3802-1">
      <rect
         style="fill:none;stroke:#000000;stroke-width:5.79035282;stroke-miterlimit:4;stroke-opacity:1;stroke-dasharray:none"
         id="rect3804-7"
         width="647.21301"
         height="717.4895"
         x="644.04382"
         y="278.01328" />
    </clipPath>
    <clipPath
       clipPathUnits="userSpaceOnUse"
       id="clipPath3802-1-1">
      <rect
         style="fill:none;stroke:#000000;stroke-width:5.79035282;stroke-miterlimit:4;stroke-opacity:1;stroke-dasharray:none"
         id="rect3804-7-7"
         width="647.21301"
         height="717.4895"
         x="644.04382"
         y="278.01328" />
    </clipPath>
  </defs>
  <sodipodi:namedview
     id="base"
     pagecolor="#ffffff"
     bordercolor="#666666"
     borderopacity="1.0"
     inkscape:pageopacity="0.0"
     inkscape:pageshadow="2"
     inkscape:zoom="2.8"
     inkscape:cx="-106.5"
     inkscape:cy="53.162104"
     inkscape:document-units="px"
     inkscape:current-layer="layer1"
     showgrid="false"
     inkscape:showpageshadow="false"
     inkscape:window-width="1920"
     inkscape:window-height="1005"
     inkscape:window-x="-9"
     inkscape:window-y="-9"
     inkscape:window-maximized="1" />
  <metadata
     id="metadata3772">
    <rdf:RDF>
      <cc:Work
         rdf:about="">
        <dc:format>image/svg+xml</dc:format>
        <dc:type
           rdf:resource="http://purl.org/dc/dcmitype/StillImage" />
        <dc:title />
      </cc:Work>
    </rdf:RDF>
  </metadata>
  <g
     inkscape:label="Ebene 1"
     inkscape:groupmode="layer"
     id="layer1"
     transform="translate(0,-924.36218)">
    <rect
       style="fill:none;stroke:#ffffff;stroke-width:5.11999988999999990;stroke-miterlimit:4;stroke-opacity:1;stroke-dasharray:none;opacity:0.5;filter:url(#filter4357)"
       id="rect3775"
       width="122.88"
       height="122.88"
       x="2.5599999"
       y="926.92218" />
    <path
       transform="matrix(0.04644285,0,0,0.85365192,17.663712,-115.57843)"
       style="fill:url(#linearGradient3033);fill-opacity:1;fill-rule:nonzero;stroke:#000000;stroke-width:0;stroke-miterlimit:4;stroke-opacity:1;filter:url(#filter3945)"
       d="m -249.44031,1229.9779 2998.44441,0 c -766.6884,54.2497 -2046.65296,27.6464 -2998.44441,54.2641 z"
       id="rect3917"
       inkscape:connector-curvature="0"
       sodipodi:nodetypes="cccc" />
    <g
       id="g3030"
       transform="matrix(0.86126536,0,0,0.87031821,22.001066,128.14994)"
       style="fill:#ffffff;stroke:#000000;stroke-width:1.34676253;stroke-miterlimit:4;stroke-opacity:1;stroke-dasharray:none">
      <path
         sodipodi:nodetypes="sccscsscccs"
         clip-path="url(#clipPath3802-1)"
         d="m 1288.678,637.8305 c 0,24.66667 -11,43.33333 -33,56 l -512.00003,288 c -9.33333,5.33333 -19.66667,8 -31,8 -11.33333,0 -22,-3 -32,-9 -21.33333,-12 -32,-30.33333 -32,-55 l 0,-576 c 0,-24.66667 10.66667,-43 32,-55 20.66667,-13.33333 41.66667,-13.66667 63,-1 l 512.00003,288 c 22,12.66667 33,31.33333 33,56 z"
         id="path2993"
         inkscape:connector-curvature="0"
         style="fill:#ffffff;stroke:#000000;stroke-width:10.92554598;stroke-miterlimit:4;stroke-opacity:1;stroke-dasharray:none"
         transform="matrix(0.12978725,0,0,0.11707488,-61.588675,913.81381)" />
      <path
         sodipodi:nodetypes="sccscsscccs"
         clip-path="url(#clipPath3802-1-1)"
         d="m 1288.678,637.8305 c 0,24.66667 -11,43.33333 -33,56 l -512.00003,288 c -9.33333,5.33333 -19.66667,8 -31,8 -11.33333,0 -22,-3 -32,-9 -21.33333,-12 -32,-30.33333 -32,-55 l 0,-576 c 0,-24.66667 10.66667,-43 32,-55 20.66667,-13.33333 41.66667,-13.66667 63,-1 l 512.00003,288 c 22,12.66667 33,31.33333 33,56 z"
         id="path2993-4"
         inkscape:connector-curvature="0"
         style="fill:#ffffff;stroke:#000000;stroke-width:10.92554598;stroke-miterlimit:4;stroke-opacity:1;stroke-dasharray:none"
         transform="matrix(0.12978725,0,0,0.11707488,-91.79348,913.7618)" />
    </g>
    <g
       transform="matrix(1,0,0,0.89013923,269.28572,939.92952)"
       style="font-size:40px;font-style:normal;font-weight:normal;line-height:125%;letter-spacing:0px;word-spacing:0px;fill:#000000;fill-opacity:1;stroke:none;font-family:Sans"
       id="flowRoot3009">
      <path
         d="m -248.98828,66.422939 7.57812,-10.78125 -7.01171,-9.960937 4.39453,0 3.18359,4.863281 c 0.59895,0.924494 1.08072,1.699233 1.44531,2.324219 0.57291,-0.859361 1.10025,-1.621079 1.58203,-2.285157 l 3.4961,-4.902343 4.19922,0 -7.16797,9.765625 7.71484,10.976562 -4.3164,0 -4.25782,-6.445312 -1.13281,-1.738282 -5.44922,8.183594 z"
         style=""
         id="path3786" />
      <path
         d="m -227.60156,58.864345 3.51562,-0.46875 c 0.40364,1.992194 1.09049,3.427739 2.06055,4.306641 0.97004,0.878909 2.15168,1.318362 3.54492,1.318359 1.65363,3e-6 3.05012,-0.572913 4.18945,-1.71875 1.13931,-1.145828 1.70897,-2.565097 1.70899,-4.257812 -2e-5,-1.614574 -0.52736,-2.945952 -1.58203,-3.994141 -1.0547,-1.048163 -2.39585,-1.572251 -4.02344,-1.572265 -0.66407,1.4e-5 -1.4909,0.130222 -2.48047,0.390625 l 0.39063,-3.085938 c 0.23436,0.02606 0.42316,0.03908 0.5664,0.03906 1.49739,1.6e-5 2.84504,-0.390608 4.04297,-1.171875 1.1979,-0.781232 1.79686,-1.985658 1.79688,-3.613282 -2e-5,-1.28904 -0.43622,-2.356747 -1.3086,-3.203125 -0.87241,-0.846328 -1.99871,-1.269505 -3.3789,-1.269531 -1.3672,2.6e-5 -2.50652,0.429713 -3.41797,1.289063 -0.91147,0.859398 -1.4974,2.148459 -1.75781,3.867187 l -3.51563,-0.625 c 0.42969,-2.356747 1.40625,-4.182917 2.92969,-5.478516 1.52343,-1.295544 3.41796,-1.94333 5.68359,-1.943359 1.56249,2.9e-5 3.00129,0.335315 4.31641,1.005859 1.31509,0.6706 2.32094,1.585313 3.01758,2.744141 0.69659,1.158878 1.0449,2.389346 1.04492,3.691406 -2e-5,1.237 -0.33205,2.363301 -0.9961,3.378907 -0.66408,1.015641 -1.64715,1.822932 -2.94921,2.421875 1.69269,0.39064 3.00779,1.201186 3.94531,2.43164 0.93748,1.230481 1.40623,2.770193 1.40625,4.619141 -2e-5,2.500006 -0.91148,4.619144 -2.73438,6.357422 -1.82293,1.738281 -4.12762,2.607421 -6.91406,2.607422 -2.51303,-10e-7 -4.59962,-0.748698 -6.25977,-2.246094 -1.66015,-1.497393 -2.60742,-3.437495 -2.84179,-5.820313 z"
         style=""
         id="path3788" />
    </g>
  </g>
</svg>
