<?xml version="1.0" encoding="UTF-8" standalone="no"?>
<!-- Created with Inkscape (http://www.inkscape.org/) -->

<svg
   xmlns:dc="http://purl.org/dc/elements/1.1/"
   xmlns:cc="http://creativecommons.org/ns#"
   xmlns:rdf="http://www.w3.org/1999/02/22-rdf-syntax-ns#"
   xmlns:svg="http://www.w3.org/2000/svg"
   xmlns="http://www.w3.org/2000/svg"
   xmlns:sodipodi="http://sodipodi.sourceforge.net/DTD/sodipodi-0.dtd"
   xmlns:inkscape="http://www.inkscape.org/namespaces/inkscape"
   width="55"
   height="33"
   id="svg2"
   version="1.1"
   inkscape:version="0.48.5 r10040"
   sodipodi:docname="ico_channel_sdtv_on.svg">
  <defs
     id="defs4">
    <clipPath
       clipPathUnits="userSpaceOnUse"
       id="clipPath3798">
      <rect
         style="fill:none;stroke:#000000;stroke-width:0.18911646;stroke-miterlimit:4;stroke-opacity:1;stroke-dasharray:none"
         id="rect3800"
         width="36.22723"
         height="25.702677"
         x="-371.17783"
         y="731.84326"
         transform="scale(-1,1)" />
    </clipPath>
    <clipPath
       clipPathUnits="userSpaceOnUse"
       id="clipPath3804">
      <rect
         style="fill:none;stroke:#000000;stroke-width:0.0918085;stroke-miterlimit:4;stroke-opacity:1;stroke-dasharray:none"
         id="rect3806"
         width="33.622112"
         height="17.081583"
         x="337.914"
         y="732.63666" />
    </clipPath>
  </defs>
  <sodipodi:namedview
     id="base"
     pagecolor="#ffffff"
     bordercolor="#666666"
     borderopacity="1.0"
     inkscape:pageopacity="0.0"
     inkscape:pageshadow="2"
     inkscape:zoom="11.099593"
     inkscape:cx="4.891632"
     inkscape:cy="35.004329"
     inkscape:document-units="px"
     inkscape:current-layer="g3797"
     showgrid="false"
     inkscape:window-width="1920"
     inkscape:window-height="1005"
     inkscape:window-x="-9"
     inkscape:window-y="-9"
     inkscape:window-maximized="1"
     inkscape:showpageshadow="false" />
  <metadata
     id="metadata7">
    <rdf:RDF>
      <cc:Work
         rdf:about="">
        <dc:format>image/svg+xml</dc:format>
        <dc:type
           rdf:resource="http://purl.org/dc/dcmitype/StillImage" />
        <dc:title />
      </cc:Work>
    </rdf:RDF>
  </metadata>
  <g
     inkscape:label="Ebene 1"
     inkscape:groupmode="layer"
     id="layer1"
     transform="translate(0,-1019.3622)">
    <g
       id="g3797"
       transform="translate(-329.62604,329.2233)">
      <rect
         y="692.09369"
         x="331.57071"
         height="29.05476"
         width="51.060802"
         id="rect2998"
         style="fill:none;stroke:#fcc024;stroke-width:3.94311023;stroke-opacity:1" />
      <path
         inkscape:connector-curvature="0"
         style="font-size:94.34880066px;font-style:italic;font-variant:normal;font-weight:bold;font-stretch:normal;text-align:start;line-height:100%;text-anchor:start;fill:#fcc024;fill-opacity:1;stroke:none;font-family:Arial"
         id="text3682"
         d="m 354.07051,696.1575 c -1.29895,0.0413 -2.60244,0.005 -3.9031,0.0173 -0.72815,6.97859 -1.456,13.95735 -2.18237,20.93673 2.86195,-0.0374 6.10524,0.48278 8.66058,-1.75553 2.74396,-3.34042 3.62387,-10.81622 1.69,-16.13712 -0.99407,-2.32803 -2.72736,-3.22411 -4.26511,-3.06138 z m 0.16669,5.26661 c 0.8682,-0.14499 1.68099,1.1514 1.61388,2.69816 0.21559,2.95601 -0.38688,6.66702 -2.10921,7.56698 -0.54755,0.19309 -1.14592,0.16869 -1.72399,0.15566 0.35927,-3.4563 0.71854,-6.91261 1.07781,-10.36891 0.38227,9.4e-4 0.76444,0.0211 1.14151,-0.0519 z" />
      <g
         transform="matrix(0.73326569,0,0,1.2622642,28.181065,3.0018337e-5)"
         style="font-size:22.26075172px;font-style:oblique;font-weight:bold;line-height:129.99999523%;letter-spacing:0px;word-spacing:0px;fill:#fcc024;fill-opacity:1;stroke:none;font-family:Sans;-inkscape-font-specification:Sans Oblique"
         id="text2996">
        <path
           inkscape:connector-curvature="0"
           d="m 462.74874,555.12 -3.5833,0 0,13.0169 -4.32678,0 0,-13.0169 -3.52237,0 0,-3.61987 11.43245,0 z"
           style="font-size:24.96125031px;font-style:normal;font-variant:normal;font-stretch:normal;fill:#fcc024;font-family:Aharoni;-inkscape-font-specification:Aharoni Bold"
           id="path2999" />
        <path
           inkscape:connector-curvature="0"
           d="m 480.34837,551.50013 -7.09348,16.63677 -3.36392,0 -6.99597,-16.63677 4.70461,0 4.00989,10.11613 4.04645,-10.11613 z"
           style="font-size:24.96125031px;font-style:normal;font-variant:normal;font-stretch:normal;fill:#fcc024;font-family:Aharoni;-inkscape-font-specification:Aharoni Bold"
           id="path3001" />
      </g>
      <path
         style="fill:#fcc024;fill-opacity:1;stroke:#000000;stroke-width:0.00059336;stroke-miterlimit:4;stroke-opacity:1;stroke-dasharray:none"
         d="m 338.88085,717.1233 c -0.71341,-0.1006 -1.07061,-0.17126 -1.80803,-0.35946 -0.46652,-0.119 -0.87556,-0.22782 -0.90899,-0.24192 -0.0396,-0.0172 -0.0518,0 -0.0349,0.0577 0.0315,0.1006 -0.0122,0.10305 -0.11484,0.0123 -0.0583,-0.054 -0.0641,-0.0871 -0.0246,-0.13519 0.0396,-0.0491 0.0204,-0.0638 -0.0802,-0.0638 -0.24386,0 -1.3417,-1.19369 -1.97301,-2.14533 -0.27035,-0.40755 -0.35031,-0.56986 -0.21069,-0.42767 0.10405,0.10551 0.11506,0.0466 0.0566,-0.3067 -0.0301,-0.18181 -0.0546,-0.78124 -0.0557,-1.36483 -0.002,-1.21467 0.0377,-1.39354 0.35514,-1.58835 0.16887,-0.10306 0.28308,-0.11042 2.10352,-0.12637 l 1.92496,-0.0172 0.0224,0.59194 c 0.0277,0.73056 0.13268,1.09002 0.44303,1.51719 0.48767,0.67132 1.47419,1.01053 2.50435,0.86135 0.90606,-0.13127 1.55868,-0.4538 2.02135,-0.99887 0.38987,-0.4592 0.52126,-0.80148 0.54705,-1.42482 0.0246,-0.59353 -0.0267,-0.78847 -0.30582,-1.16314 -0.4009,-0.5382 -0.90213,-0.7924 -2.61473,-1.32606 -1.81191,-0.56458 -2.70844,-0.97569 -3.45411,-1.58382 -0.47202,-0.38497 -0.94299,-1.03494 -1.1839,-1.63374 -0.25797,-0.64126 -0.33231,-1.08451 -0.33328,-1.98756 -9.3e-4,-0.8638 0.0769,-1.45427 0.29219,-2.21624 0.75597,-2.67592 2.59565,-4.19815 5.71366,-4.72764 0.79771,-0.13544 2.119,-0.21433 2.96656,-0.17691 1.10066,0.0491 1.52597,0.14452 2.67269,0.60384 0.43771,0.17531 0.48561,0.2099 0.88054,0.63745 0.49752,0.53857 1.14418,1.43009 1.16162,1.60148 0.007,0.0675 0.0435,0.36853 0.0815,0.66984 0.038,0.30118 0.0692,0.7789 0.0694,1.06156 4e-4,0.81252 -0.12754,1.19332 -0.46407,1.38078 -0.16755,0.0932 -0.31973,0.10182 -1.80383,0.10305 -1.05733,7.4e-4 -1.69029,-0.0196 -1.8206,-0.0601 -0.26213,-0.081 -0.42968,-0.33223 -0.53258,-0.79866 -0.18048,-0.81792 -0.5386,-1.37587 -1.02704,-1.60001 -0.96957,-0.44509 -2.21753,-0.14771 -2.89473,0.68972 -0.51763,0.64015 -0.70991,1.64527 -0.43924,2.29622 0.12341,0.29677 0.47911,0.6918 0.80435,0.89312 0.35666,0.22095 1.28657,0.59721 2.17357,0.87962 2.40154,0.76455 3.40455,1.32423 4.15503,2.31868 0.5097,0.67548 0.72896,1.38912 0.73176,2.38198 0.008,2.70905 -1.72994,5.54875 -4.19912,6.86254 -0.89004,0.47367 -2.05476,0.83828 -3.1207,0.97704 -0.46543,0.0601 -2.0282,0.11654 -2.27677,0.0822 l 0,0 z"
         id="path3820"
         inkscape:connector-curvature="0" />
    </g>
  </g>
</svg>
