<?xml version="1.0" encoding="UTF-8" standalone="no"?>
<!-- Created with Inkscape (http://www.inkscape.org/) -->

<svg
   xmlns:dc="http://purl.org/dc/elements/1.1/"
   xmlns:cc="http://creativecommons.org/ns#"
   xmlns:rdf="http://www.w3.org/1999/02/22-rdf-syntax-ns#"
   xmlns:svg="http://www.w3.org/2000/svg"
   xmlns="http://www.w3.org/2000/svg"
   xmlns:sodipodi="http://sodipodi.sourceforge.net/DTD/sodipodi-0.dtd"
   xmlns:inkscape="http://www.inkscape.org/namespaces/inkscape"
   width="55"
   height="33"
   id="svg2"
   version="1.1"
   inkscape:version="0.48.5 r10040"
   sodipodi:docname="ico_channel_signal_on.svg">
  <defs
     id="defs4">
    <clipPath
       clipPathUnits="userSpaceOnUse"
       id="clipPath3798">
      <rect
         style="fill:none;stroke:#000000;stroke-width:0.18911646;stroke-miterlimit:4;stroke-opacity:1;stroke-dasharray:none"
         id="rect3800"
         width="36.22723"
         height="25.702677"
         x="-371.17783"
         y="731.84326"
         transform="scale(-1,1)" />
    </clipPath>
    <clipPath
       clipPathUnits="userSpaceOnUse"
       id="clipPath3804">
      <rect
         style="fill:none;stroke:#000000;stroke-width:0.0918085;stroke-miterlimit:4;stroke-opacity:1;stroke-dasharray:none"
         id="rect3806"
         width="33.622112"
         height="17.081583"
         x="337.914"
         y="732.63666" />
    </clipPath>
  </defs>
  <sodipodi:namedview
     id="base"
     pagecolor="#ffffff"
     bordercolor="#666666"
     borderopacity="1.0"
     inkscape:pageopacity="0.0"
     inkscape:pageshadow="2"
     inkscape:zoom="7.8485975"
     inkscape:cx="-35.194982"
     inkscape:cy="42.739343"
     inkscape:document-units="px"
     inkscape:current-layer="g3797"
     showgrid="false"
     inkscape:window-width="1920"
     inkscape:window-height="1005"
     inkscape:window-x="-9"
     inkscape:window-y="-9"
     inkscape:window-maximized="1"
     inkscape:showpageshadow="false" />
  <metadata
     id="metadata7">
    <rdf:RDF>
      <cc:Work
         rdf:about="">
        <dc:format>image/svg+xml</dc:format>
        <dc:type
           rdf:resource="http://purl.org/dc/dcmitype/StillImage" />
        <dc:title />
      </cc:Work>
    </rdf:RDF>
  </metadata>
  <g
     inkscape:label="Ebene 1"
     inkscape:groupmode="layer"
     id="layer1"
     transform="translate(0,-1019.3622)">
    <g
       id="g3797"
       transform="translate(-329.62604,329.2233)">
      <rect
         y="692.09369"
         x="331.57071"
         height="29.05476"
         width="51.060802"
         id="rect2998"
         style="fill:none;stroke:#fcc024;stroke-width:3.94311023;stroke-opacity:1" />
      <path
         inkscape:connector-curvature="0"
         style="fill:#fcc024;fill-opacity:1;fill-rule:nonzero;stroke:none"
         id="rect3663"
         d="m 349.24451,859.40137 -1.14556,21 16.38881,0 c 0.92235,0 1.66537,-2.98654 1.66537,-6.69392 l 0,-7.61216 c 0,-3.70738 -0.74302,-6.69392 -1.66537,-6.69392 l -15.24325,0 z" />
      <g
         id="g3059"
         transform="matrix(0.03297822,0,0,0.07,327.02006,892.68103)"
         style="fill:#fcc024;fill-opacity:1">
        <path
           d="m 645.28735,-468.98101 c -22.63869,97.54848 -45.21669,195.10934 -67.78235,292.67239 36.50219,0 73.0044,0 109.50665,0 9.23463,-39.77615 18.60467,-75.70883 27.72078,-115.50838 l 87.65184,0 c -8.90953,38.50397 -17.87029,76.99783 -26.74647,115.50838 36.5022,0 73.00445,0 109.50665,0 23.07354,-99.51894 46.11155,-199.04489 68.98923,-298.60244 -36.3991,0 -72.79816,0 -109.19727,0 -7.99386,34.35927 -16.12174,68.69197 -24.19974,103.03451 l -87.65048,0 c 7.65984,-33.06839 15.29407,-69.95841 22.9147,-103.03451 -36.45061,0 -72.90132,0 -109.35197,0 l -0.88067,3.83533 -0.4809,2.09472 z"
           id="text3678"
           style="font-size:94.34880066px;font-style:italic;font-variant:normal;font-weight:bold;font-stretch:normal;text-align:start;line-height:100%;text-anchor:start;fill:#fcc024;fill-opacity:1;stroke:none;font-family:Arial"
           inkscape:connector-curvature="0" />
        <path
           d="m 1093.3881,-475.15814 c -37.9368,0.59053 -76.0067,0.074 -113.99368,0.24708 -21.26607,99.69441 -42.52379,199.39101 -63.73787,299.09658 83.5858,-0.53437 178.30915,6.89683 252.94025,-25.07912 80.1398,-47.72024 105.8384,-154.51752 49.358,-230.53047 -29.0329,-33.25756 -79.6553,-46.05874 -124.5667,-43.73407 z m 4.8684,75.23743 c 25.3566,-2.07132 49.0948,16.44857 47.1348,38.54528 6.2967,42.22863 -11.2992,95.24329 -61.6013,108.09977 -15.9916,2.75834 -33.4677,2.40982 -50.3509,2.22376 10.493,-49.37585 20.9858,-98.7517 31.4787,-148.12756 11.1645,0.0163 22.326,0.30005 33.3387,-0.74125 z"
           id="text3682"
           style="font-size:94.34880066px;font-style:italic;font-variant:normal;font-weight:bold;font-stretch:normal;text-align:start;line-height:100%;text-anchor:start;fill:#fcc024;fill-opacity:1;stroke:none;font-family:Arial"
           inkscape:connector-curvature="0" />
      </g>
      <text
         xml:space="preserve"
         style="font-size:40px;font-style:normal;font-weight:normal;line-height:125%;letter-spacing:0px;word-spacing:0px;fill:#000000;fill-opacity:1;stroke:none;font-family:Sans"
         x="-59.118843"
         y="-8.6634951"
         id="text3006"
         sodipodi:linespacing="125%"
         transform="translate(329.62604,690.1389)"><tspan
           sodipodi:role="line"
           id="tspan3008"
           x="-59.118843"
           y="-8.6634951" /></text>
      <g
         id="g3799"
         style="fill:#fcc024;fill-opacity:1">
        <g
           transform="scale(1.2295157,0.81332835)"
           style="font-size:16.59886742000000100px;font-style:normal;font-weight:bold;line-height:125%;letter-spacing:0px;word-spacing:0px;fill:#fcc024;fill-opacity:1;stroke:none;font-family:Sans;-inkscape-font-specification:Sans Bold"
           id="text2998">
          <path
             d="m 274.19415,863.84154 2.33422,-0.22694 c 0.14048,0.78348 0.42551,1.35893 0.85507,1.72635 0.42956,0.36742 1.00906,0.55113 1.7385,0.55113 0.77267,0 1.35487,-0.16345 1.74661,-0.49035 0.39173,-0.32689 0.5876,-0.70918 0.58761,-1.14684 -1e-5,-0.28097 -0.0824,-0.52006 -0.2472,-0.71729 -0.16481,-0.19721 -0.45253,-0.36877 -0.86317,-0.51466 -0.28098,-0.0972 -0.92127,-0.27016 -1.92087,-0.51872 -1.28598,-0.31878 -2.18833,-0.71052 -2.70704,-1.17521 -0.72945,-0.65379 -1.09417,-1.45077 -1.09416,-2.39095 -10e-6,-0.60516 0.17155,-1.17115 0.51466,-1.69798 0.3431,-0.52681 0.8375,-0.928 1.4832,-1.20358 0.64568,-0.27555 1.42511,-0.41334 2.33827,-0.41335 1.49129,10e-6 2.61382,0.32691 3.36759,0.9807 0.75375,0.6538 1.14953,1.52643 1.18737,2.61788 l -2.39906,0.10537 c -0.10267,-0.61056 -0.32285,-1.04958 -0.66055,-1.31705 -0.33771,-0.26745 -0.84427,-0.40118 -1.51967,-0.40119 -0.69703,10e-6 -1.24276,0.14319 -1.63719,0.42956 -0.25396,0.18372 -0.38094,0.42957 -0.38093,0.73754 -1e-5,0.28098 0.11886,0.52143 0.35661,0.72134 0.30258,0.25396 1.03743,0.51872 2.20454,0.79428 1.1671,0.27558 2.03027,0.5606 2.58952,0.85507 0.55923,0.29449 0.9969,0.69703 1.313,1.20763 0.31608,0.51062 0.47412,1.14145 0.47413,1.8925 -10e-6,0.68082 -0.18912,1.3184 -0.56734,1.91276 -0.37824,0.59436 -0.91316,1.03608 -1.60477,1.32516 -0.69163,0.28907 -1.55345,0.43361 -2.58547,0.43361 -1.50212,0 -2.65571,-0.34716 -3.4608,-1.04148 -0.80509,-0.69432 -1.28598,-1.70609 -1.44268,-3.03529 z"
             style="fill:#fcc024;fill-opacity:1"
             id="path3806" />
          <path
             d="m 288.56417,867.70758 0,-9.87179 -3.52564,0 0,-2.01002 9.44223,0 0,2.01002 -3.51754,0 0,9.87179 z"
             style="fill:#fcc024;fill-opacity:1"
             id="path3808" />
          <path
             d="m 296.04501,867.70758 0,-11.88181 5.04936,0 c 1.26976,2e-5 2.19237,0.10673 2.76783,0.32015 0.57544,0.21344 1.03607,0.59302 1.38189,1.13874 0.3458,0.54574 0.5187,1.16982 0.51871,1.87223 -1e-5,0.89155 -0.26207,1.62775 -0.78618,2.20859 -0.52412,0.58086 -1.3076,0.94693 -2.35042,1.09822 0.5187,0.30259 0.94691,0.63489 1.28463,0.9969 0.33769,0.36203 0.79292,1.00502 1.36568,1.92897 l 1.45078,2.31801 -2.86914,0 -1.73446,-2.58547 c -0.61598,-0.92395 -1.03743,-1.50616 -1.26436,-1.74661 -0.22695,-0.24044 -0.46739,-0.40524 -0.72134,-0.4944 -0.25396,-0.0891 -0.6565,-0.13372 -1.20763,-0.13373 l -0.4863,0 0,4.96021 z m 2.39905,-6.85676 1.77498,0 c 1.15089,10e-6 1.86953,-0.0486 2.15591,-0.14589 0.28636,-0.0973 0.5106,-0.26475 0.6727,-0.5025 0.16209,-0.23774 0.24314,-0.53492 0.24315,-0.89154 -10e-6,-0.39984 -0.10672,-0.72268 -0.32014,-0.96854 -0.21344,-0.24584 -0.51467,-0.40118 -0.9037,-0.46603 -0.19453,-0.027 -0.77808,-0.0405 -1.75066,-0.0405 l -1.87224,0 z"
             style="fill:#fcc024;fill-opacity:1"
             id="path3810" />
        </g>
        <g
           transform="scale(1.2295157,0.81332836)"
           style="font-size:16.59886742000000100px;font-style:normal;font-weight:bold;line-height:125%;letter-spacing:0px;word-spacing:0px;fill:#fcc024;fill-opacity:1;stroke:none;font-family:Sans;-inkscape-font-specification:Sans Bold"
           id="text2998-1">
          <path
             d="m 273.2702,878.3358 2.33422,-0.22694 c 0.14048,0.78348 0.4255,1.35893 0.85507,1.72635 0.42956,0.36742 1.00906,0.55113 1.7385,0.55113 0.77267,0 1.35487,-0.16345 1.74661,-0.49035 0.39173,-0.32689 0.5876,-0.70917 0.58761,-1.14684 -1e-5,-0.28097 -0.0824,-0.52006 -0.2472,-0.71729 -0.16481,-0.19721 -0.45253,-0.36877 -0.86317,-0.51466 -0.28098,-0.0973 -0.92127,-0.27016 -1.92087,-0.51871 -1.28598,-0.31879 -2.18833,-0.71053 -2.70704,-1.17522 -0.72945,-0.65378 -1.09417,-1.45077 -1.09417,-2.39095 0,-0.60515 0.17156,-1.17115 0.51467,-1.69798 0.3431,-0.5268 0.8375,-0.928 1.4832,-1.20358 0.64568,-0.27555 1.42511,-0.41333 2.33826,-0.41335 1.4913,2e-5 2.61383,0.32691 3.3676,0.9807 0.75375,0.65381 1.14953,1.52643 1.18737,2.61789 l -2.39906,0.10536 c -0.10267,-0.61056 -0.32285,-1.04958 -0.66055,-1.31705 -0.33771,-0.26745 -0.84427,-0.40118 -1.51967,-0.40119 -0.69703,10e-6 -1.24276,0.1432 -1.63719,0.42956 -0.25396,0.18372 -0.38094,0.42957 -0.38093,0.73755 -1e-5,0.28098 0.11886,0.52142 0.35661,0.72133 0.30258,0.25397 1.03743,0.51873 2.20454,0.79429 1.1671,0.27557 2.03027,0.56059 2.58952,0.85506 0.55923,0.29449 0.9969,0.69703 1.313,1.20764 0.31608,0.51061 0.47412,1.14144 0.47413,1.89249 -1e-5,0.68082 -0.18912,1.31841 -0.56734,1.91276 -0.37824,0.59437 -0.91316,1.03608 -1.60477,1.32516 -0.69163,0.28907 -1.55345,0.43361 -2.58547,0.43361 -1.50212,0 -2.65572,-0.34716 -3.4608,-1.04148 -0.80509,-0.69432 -1.28598,-1.70608 -1.44268,-3.03529 z"
             style="fill:#fcc024;fill-opacity:1"
             id="path3813" />
          <path
             d="m 284.98991,882.20184 0,-11.8818 2.33422,0 4.86295,7.93471 0,-7.93471 2.22885,0 0,11.8818 -2.40716,0 -4.79001,-7.7483 0,7.7483 z"
             style="fill:#fcc024;fill-opacity:1"
             id="path3815" />
          <path
             d="m 296.96898,882.20184 0,-11.8818 5.04936,0 c 1.26976,1e-5 2.19237,0.10672 2.76783,0.32014 0.57544,0.21344 1.03607,0.59302 1.38189,1.13874 0.3458,0.54574 0.5187,1.16982 0.51871,1.87224 -1e-5,0.89155 -0.26207,1.62774 -0.78617,2.20859 -0.52413,0.58085 -1.30761,0.94693 -2.35043,1.09821 0.51871,0.30259 0.94692,0.63489 1.28463,0.99691 0.33769,0.36202 0.79292,1.00501 1.36568,1.92897 l 1.45078,2.318 -2.86914,0 -1.73446,-2.58546 c -0.61598,-0.92396 -1.03743,-1.50616 -1.26436,-1.74661 -0.22695,-0.24045 -0.46739,-0.40525 -0.72134,-0.4944 -0.25396,-0.0892 -0.6565,-0.13373 -1.20763,-0.13374 l -0.4863,0 0,4.96021 z m 2.39905,-6.85676 1.77498,0 c 1.15089,10e-6 1.86953,-0.0486 2.15591,-0.14588 0.28636,-0.0973 0.5106,-0.26476 0.67271,-0.50251 0.16209,-0.23774 0.24313,-0.53492 0.24314,-0.89154 -10e-6,-0.39983 -0.10672,-0.72268 -0.32014,-0.96854 -0.21344,-0.24584 -0.51467,-0.40118 -0.9037,-0.46603 -0.19452,-0.027 -0.77808,-0.0405 -1.75066,-0.0405 l -1.87224,0 z"
             style="fill:#fcc024;fill-opacity:1"
             id="path3817" />
        </g>
      </g>
    </g>
  </g>
</svg>
