<?xml version="1.0" encoding="UTF-8" standalone="no"?>
<!-- Created with Inkscape (http://www.inkscape.org/) -->

<svg
   xmlns:dc="http://purl.org/dc/elements/1.1/"
   xmlns:cc="http://creativecommons.org/ns#"
   xmlns:rdf="http://www.w3.org/1999/02/22-rdf-syntax-ns#"
   xmlns:svg="http://www.w3.org/2000/svg"
   xmlns="http://www.w3.org/2000/svg"
   xmlns:xlink="http://www.w3.org/1999/xlink"
   xmlns:sodipodi="http://sodipodi.sourceforge.net/DTD/sodipodi-0.dtd"
   xmlns:inkscape="http://www.inkscape.org/namespaces/inkscape"
   width="128"
   height="128"
   id="svg3767"
   version="1.1"
   inkscape:version="0.48.5 r10040"
   sodipodi:docname="ico_repay_ffx2.svg">
  <defs
     id="defs3769">
    <clipPath
       clipPathUnits="userSpaceOnUse"
       id="clipPath2988">
      <path
         style="fill:none;stroke:#000000;stroke-width:1px;stroke-linecap:butt;stroke-linejoin:miter;stroke-opacity:1"
         d="m 569.13707,314.503 26.84608,655.0445 93.96131,69.7999 612.09084,-263.0917 c 0,0 69.7998,-195.97643 59.0614,-201.34565 -10.7385,-5.36922 -566.4525,-324.83766 -566.4525,-324.83766 l -182.55339,21.47687 z"
         id="path2990"
         inkscape:connector-curvature="0" />
    </clipPath>
    <clipPath
       clipPathUnits="userSpaceOnUse"
       id="clipPath3009">
      <path
         style="fill:none;stroke:#000000;stroke-width:1px;stroke-linecap:butt;stroke-linejoin:miter;stroke-opacity:1"
         d="m 639.72881,270.77966 0,775.45764 L 1357.2534,631.97427 639.23819,217.42799 z"
         id="path3011"
         inkscape:connector-curvature="0" />
    </clipPath>
    <clipPath
       clipPathUnits="userSpaceOnUse"
       id="clipPath3802">
      <rect
         style="fill:none;stroke:#000000;stroke-width:5.79035282;stroke-miterlimit:4;stroke-opacity:1;stroke-dasharray:none"
         id="rect3804"
         width="647.21301"
         height="717.4895"
         x="644.04382"
         y="278.01328" />
    </clipPath>
    <linearGradient
       inkscape:collect="always"
       xlink:href="#linearGradient3929"
       id="linearGradient3935"
       x1="-846.99457"
       y1="848.50134"
       x2="7882.6704"
       y2="1220.3998"
       gradientUnits="userSpaceOnUse"
       gradientTransform="translate(-18.634748,69.177544)" />
    <linearGradient
       id="linearGradient3929">
      <stop
         style="stop-color:#ffffff;stop-opacity:0.68627453;"
         offset="0"
         id="stop3931" />
      <stop
         style="stop-color:#ffffff;stop-opacity:0;"
         offset="1"
         id="stop3933" />
    </linearGradient>
    <filter
       color-interpolation-filters="sRGB"
       inkscape:collect="always"
       id="filter3945"
       x="-0.0070301555"
       width="1.0140603"
       y="-0.3884618"
       height="1.7769237">
      <feGaussianBlur
         inkscape:collect="always"
         stdDeviation="8.7831373"
         id="feGaussianBlur3947" />
    </filter>
    <linearGradient
       y2="1220.3998"
       x2="7882.6704"
       y1="848.50134"
       x1="-846.99457"
       gradientTransform="translate(-18.634748,69.177544)"
       gradientUnits="userSpaceOnUse"
       id="linearGradient3033"
       xlink:href="#linearGradient3929"
       inkscape:collect="always" />
    <filter
       inkscape:collect="always"
       id="filter4357">
      <feGaussianBlur
         inkscape:collect="always"
         stdDeviation="0.61439999"
         id="feGaussianBlur4359" />
    </filter>
    <clipPath
       clipPathUnits="userSpaceOnUse"
       id="clipPath3802-1">
      <rect
         style="fill:none;stroke:#000000;stroke-width:5.79035282;stroke-miterlimit:4;stroke-opacity:1;stroke-dasharray:none"
         id="rect3804-7"
         width="647.21301"
         height="717.4895"
         x="644.04382"
         y="278.01328" />
    </clipPath>
    <clipPath
       clipPathUnits="userSpaceOnUse"
       id="clipPath3802-1-1">
      <rect
         style="fill:none;stroke:#000000;stroke-width:5.79035282;stroke-miterlimit:4;stroke-opacity:1;stroke-dasharray:none"
         id="rect3804-7-7"
         width="647.21301"
         height="717.4895"
         x="644.04382"
         y="278.01328" />
    </clipPath>
  </defs>
  <sodipodi:namedview
     id="base"
     pagecolor="#ffffff"
     bordercolor="#666666"
     borderopacity="1.0"
     inkscape:pageopacity="0.0"
     inkscape:pageshadow="2"
     inkscape:zoom="2.8"
     inkscape:cx="-106.5"
     inkscape:cy="53.162104"
     inkscape:document-units="px"
     inkscape:current-layer="layer1"
     showgrid="false"
     inkscape:showpageshadow="false"
     inkscape:window-width="1920"
     inkscape:window-height="1005"
     inkscape:window-x="-9"
     inkscape:window-y="-9"
     inkscape:window-maximized="1" />
  <metadata
     id="metadata3772">
    <rdf:RDF>
      <cc:Work
         rdf:about="">
        <dc:format>image/svg+xml</dc:format>
        <dc:type
           rdf:resource="http://purl.org/dc/dcmitype/StillImage" />
        <dc:title></dc:title>
      </cc:Work>
    </rdf:RDF>
  </metadata>
  <g
     inkscape:label="Ebene 1"
     inkscape:groupmode="layer"
     id="layer1"
     transform="translate(0,-924.36218)">
    <rect
       style="fill:none;stroke:#ffffff;stroke-width:5.11999988999999990;stroke-miterlimit:4;stroke-opacity:1;stroke-dasharray:none;opacity:0.5;filter:url(#filter4357)"
       id="rect3775"
       width="122.88"
       height="122.88"
       x="2.5599999"
       y="926.92218" />
    <path
       transform="matrix(0.04644285,0,0,0.85365192,17.663712,-115.57843)"
       style="fill:url(#linearGradient3033);fill-opacity:1;fill-rule:nonzero;stroke:#000000;stroke-width:0;stroke-miterlimit:4;stroke-opacity:1;filter:url(#filter3945)"
       d="m -249.44031,1229.9779 2998.44441,0 c -766.6884,54.2497 -2046.65296,27.6464 -2998.44441,54.2641 z"
       id="rect3917"
       inkscape:connector-curvature="0"
       sodipodi:nodetypes="cccc" />
    <g
       id="g3030"
       transform="matrix(0.86126536,0,0,0.87031821,22.001066,128.14994)"
       style="fill:#ffffff;stroke:#000000;stroke-width:1.34676253;stroke-miterlimit:4;stroke-opacity:1;stroke-dasharray:none">
      <path
         sodipodi:nodetypes="sccscsscccs"
         clip-path="url(#clipPath3802-1)"
         d="m 1288.678,637.8305 c 0,24.66667 -11,43.33333 -33,56 l -512.00003,288 c -9.33333,5.33333 -19.66667,8 -31,8 -11.33333,0 -22,-3 -32,-9 -21.33333,-12 -32,-30.33333 -32,-55 l 0,-576 c 0,-24.66667 10.66667,-43 32,-55 20.66667,-13.33333 41.66667,-13.66667 63,-1 l 512.00003,288 c 22,12.66667 33,31.33333 33,56 z"
         id="path2993"
         inkscape:connector-curvature="0"
         style="fill:#ffffff;stroke:#000000;stroke-width:10.92554598;stroke-miterlimit:4;stroke-opacity:1;stroke-dasharray:none"
         transform="matrix(0.12978725,0,0,0.11707488,-61.588675,913.81381)" />
      <path
         sodipodi:nodetypes="sccscsscccs"
         clip-path="url(#clipPath3802-1-1)"
         d="m 1288.678,637.8305 c 0,24.66667 -11,43.33333 -33,56 l -512.00003,288 c -9.33333,5.33333 -19.66667,8 -31,8 -11.33333,0 -22,-3 -32,-9 -21.33333,-12 -32,-30.33333 -32,-55 l 0,-576 c 0,-24.66667 10.66667,-43 32,-55 20.66667,-13.33333 41.66667,-13.66667 63,-1 l 512.00003,288 c 22,12.66667 33,31.33333 33,56 z"
         id="path2993-4"
         inkscape:connector-curvature="0"
         style="fill:#ffffff;stroke:#000000;stroke-width:10.92554598;stroke-miterlimit:4;stroke-opacity:1;stroke-dasharray:none"
         transform="matrix(0.12978725,0,0,0.11707488,-91.79348,913.7618)" />
    </g>
    <g
       transform="matrix(0.96414566,0,0,0.88819876,5.9435574,935.0465)"
       style="font-size:40px;font-style:normal;font-weight:normal;line-height:125%;letter-spacing:0px;word-spacing:0px;fill:#000000;fill-opacity:1;stroke:none;font-family:Sans"
       id="flowRoot3006">
      <path
         d="m 16.355469,73.204189 7.578125,-10.78125 -7.011719,-9.960937 4.394531,0 L 24.5,57.325283 c 0.598949,0.924494 1.08072,1.699233 1.445312,2.324219 0.572907,-0.859361 1.10025,-1.621079 1.582032,-2.285157 l 3.496093,-4.902343 4.199219,0 -7.167969,9.765625 7.714844,10.976562 -4.316406,0 -4.257813,-6.445312 -1.132812,-1.738282 -5.449219,8.183594 z"
         style=""
         id="path3783" />
      <path
         d="m 56.199219,69.825283 0,3.378906 -18.925782,0 c -0.02604,-0.846353 0.110676,-1.660155 0.410157,-2.441406 0.481768,-1.289059 1.253252,-2.558589 2.314453,-3.808594 1.061193,-1.249992 2.594394,-2.695303 4.599609,-4.335937 3.111968,-2.552071 5.21483,-4.573553 6.308594,-6.064454 1.093734,-1.490867 1.640609,-2.900371 1.640625,-4.228515 -1.6e-5,-1.393207 -0.498063,-2.568336 -1.494141,-3.525391 -0.996107,-0.957006 -2.294934,-1.435521 -3.896484,-1.435547 -1.692718,2.6e-5 -3.046883,0.507838 -4.0625,1.523438 -1.015631,1.015648 -1.529953,2.421897 -1.542969,4.21875 L 37.9375,52.735439 c 0.247394,-2.695289 1.178382,-4.749324 2.792969,-6.162109 1.614577,-1.412733 3.782543,-2.119112 6.503906,-2.119141 2.747382,2.9e-5 4.921859,0.761747 6.523437,2.285156 1.601544,1.523463 2.402324,3.411482 2.402344,5.664063 -2e-5,1.145853 -0.234395,2.272154 -0.703125,3.378906 -0.468769,1.106787 -1.246763,2.272151 -2.333984,3.496094 -1.087256,1.223971 -2.893895,2.903657 -5.419922,5.039062 -2.109385,1.770841 -3.46355,2.972011 -4.0625,3.603516 -0.598965,0.631515 -1.093756,1.26628 -1.484375,1.904297 z"
         style=""
         id="path3785" />
    </g>
  </g>
</svg>
