<?xml version="1.0" encoding="UTF-8" standalone="no"?>
<!-- Created with Inkscape (http://www.inkscape.org/) -->

<svg
   xmlns:dc="http://purl.org/dc/elements/1.1/"
   xmlns:cc="http://creativecommons.org/ns#"
   xmlns:rdf="http://www.w3.org/1999/02/22-rdf-syntax-ns#"
   xmlns:svg="http://www.w3.org/2000/svg"
   xmlns="http://www.w3.org/2000/svg"
   xmlns:sodipodi="http://sodipodi.sourceforge.net/DTD/sodipodi-0.dtd"
   xmlns:inkscape="http://www.inkscape.org/namespaces/inkscape"
   width="55"
   height="33"
   id="svg2"
   version="1.1"
   inkscape:version="0.48.5 r10040"
   sodipodi:docname="ico_channel_teletext_on.svg">
  <defs
     id="defs4">
    <clipPath
       clipPathUnits="userSpaceOnUse"
       id="clipPath3798">
      <rect
         style="fill:none;stroke:#000000;stroke-width:0.18911646;stroke-miterlimit:4;stroke-opacity:1;stroke-dasharray:none"
         id="rect3800"
         width="36.22723"
         height="25.702677"
         x="-371.17783"
         y="731.84326"
         transform="scale(-1,1)" />
    </clipPath>
    <clipPath
       clipPathUnits="userSpaceOnUse"
       id="clipPath3804">
      <rect
         style="fill:none;stroke:#000000;stroke-width:0.0918085;stroke-miterlimit:4;stroke-opacity:1;stroke-dasharray:none"
         id="rect3806"
         width="33.622112"
         height="17.081583"
         x="337.914"
         y="732.63666" />
    </clipPath>
  </defs>
  <sodipodi:namedview
     id="base"
     pagecolor="#ffffff"
     bordercolor="#666666"
     borderopacity="1.0"
     inkscape:pageopacity="0.0"
     inkscape:pageshadow="2"
     inkscape:zoom="11.099593"
     inkscape:cx="39.679577"
     inkscape:cy="2.0677496"
     inkscape:document-units="px"
     inkscape:current-layer="g3797"
     showgrid="false"
     inkscape:window-width="1920"
     inkscape:window-height="1005"
     inkscape:window-x="-9"
     inkscape:window-y="-9"
     inkscape:window-maximized="1"
     inkscape:showpageshadow="false" />
  <metadata
     id="metadata7">
    <rdf:RDF>
      <cc:Work
         rdf:about="">
        <dc:format>image/svg+xml</dc:format>
        <dc:type
           rdf:resource="http://purl.org/dc/dcmitype/StillImage" />
        <dc:title></dc:title>
      </cc:Work>
    </rdf:RDF>
  </metadata>
  <g
     inkscape:label="Ebene 1"
     inkscape:groupmode="layer"
     id="layer1"
     transform="translate(0,-1019.3622)">
    <g
       id="g3797"
       transform="translate(-329.62604,329.2233)">
      <rect
         y="692.09369"
         x="331.57071"
         height="29.05476"
         width="51.060802"
         id="rect2998"
         style="fill:none;stroke:#fcc024;stroke-width:3.94311023;stroke-opacity:1" />
      <path
         inkscape:connector-curvature="0"
         style="font-size:30px;font-style:italic;font-variant:normal;font-weight:bold;font-stretch:normal;text-align:center;text-anchor:middle;fill:#fcc024;fill-opacity:1;stroke:none;font-family:Sans;-inkscape-font-specification:Sans Bold Italic"
         id="text3803"
         d="m 350.74842,732.78018 c -0.71761,2e-5 -1.36265,0.28722 -1.93511,0.82304 -0.57248,0.53585 -1.06835,1.32746 -1.48359,2.37769 -0.39508,1.00023 -0.69422,2.17051 -0.91595,3.52079 -0.2177,1.34318 -0.33542,2.71492 -0.33542,4.11523 0,1.86471 0.26285,3.28217 0.78694,4.27525 0.52813,0.99308 1.29572,1.50892 2.28343,1.50892 0.70954,0 1.34571,-0.2715 1.92221,-0.80019 0.5765,-0.53583 1.07641,-1.33458 1.48359,-2.37768 0.39911,-1.01451 0.70712,-2.17763 0.92886,-3.5208 0.22172,-1.34315 0.32251,-2.73918 0.32252,-4.16094 -1e-5,-1.84326 -0.2548,-3.2593 -0.78695,-4.2524 -0.52813,-1.0002 -1.29089,-1.50889 -2.27053,-1.50891 z m 8.6693,0 c -1.18526,2e-5 -2.12621,0.42868 -2.79946,1.25743 -0.66923,0.82877 -0.99336,1.95617 -0.99336,3.40648 0,0.72161 0.0959,1.33746 0.30961,1.85185 0.2177,0.51442 0.54506,0.93594 0.98046,1.25743 -0.74986,0.37867 -1.32717,0.99452 -1.7545,1.85185 -0.42331,0.8502 -0.64504,1.859 -0.64504,2.99497 0,1.25743 0.28624,2.24193 0.83855,2.94924 0.55634,0.70016 1.32636,1.05167 2.32213,1.05167 1.26186,0 2.25844,-0.48297 2.98008,-1.44033 0.72566,-0.95736 1.08365,-2.26623 1.08366,-3.90946 -10e-6,-0.86447 -0.1145,-1.58463 -0.34831,-2.14906 -0.23384,-0.5644 -0.60473,-1.01308 -1.09657,-1.34888 0.67728,-0.32149 1.19814,-0.83304 1.56099,-1.55464 0.36686,-0.72158 0.55472,-1.59178 0.55473,-2.6063 -10e-6,-1.1431 -0.26286,-2.02331 -0.78695,-2.65203 -0.5241,-0.62871 -1.2546,-0.9602 -2.20602,-0.96022 z m 8.55319,0 c -0.71761,2e-5 -1.36264,0.28722 -1.93511,0.82304 -0.57247,0.53585 -1.06835,1.32746 -1.48358,2.37769 -0.3951,1.00023 -0.69422,2.17051 -0.91596,3.52079 -0.2177,1.34318 -0.33542,2.71492 -0.33542,4.11523 0,1.86471 0.26286,3.28217 0.78695,4.27525 0.52812,0.99308 1.29571,1.50892 2.28343,1.50892 0.70954,0 1.3457,-0.2715 1.92221,-0.80019 0.57649,-0.53583 1.0764,-1.33458 1.48359,-2.37768 0.3991,-1.01451 0.7071,-2.17763 0.92885,-3.5208 0.22173,-1.34315 0.32251,-2.73918 0.32252,-4.16094 -10e-6,-1.84326 -0.2548,-3.2593 -0.78695,-4.2524 -0.52813,-1.0002 -1.29089,-1.50889 -2.27053,-1.50891 z m -25.90469,0.0228 c -0.9752,2.21525 -2.17422,3.83672 -3.68961,4.57247 l -0.0129,3.06355 c 1.05481,-0.59006 2.29794,-0.53532 3.13488,-1.89757 l -1.08366,10.72244 2.06411,0 1.6513,-16.46089 -2.06412,0 z m 17.13218,2.58345 c 0.2943,10e-6 0.53216,0.15719 0.70955,0.45724 0.18141,0.29294 0.27091,0.67303 0.27091,1.16598 0,0.70016 -0.12418,1.26315 -0.37412,1.69182 -0.24592,0.42152 -0.56925,0.64014 -0.98046,0.64013 -0.2943,10e-6 -0.54103,-0.15716 -0.72244,-0.45723 -0.17739,-0.30006 -0.25802,-0.68015 -0.25801,-1.16598 -1e-5,-0.70015 0.1153,-1.27028 0.36122,-1.69182 0.24995,-0.42865 0.58214,-0.64013 0.99335,-0.64014 z m -8.64349,0.22866 c 0.33863,10e-6 0.58698,0.19291 0.74824,0.57156 0.16126,0.37152 0.24511,0.93737 0.24511,1.73753 0,0.37868 -0.0283,0.83592 -0.0645,1.37174 -0.0363,0.53585 -0.0863,1.12455 -0.15481,1.7604 -0.0806,0.7859 -0.16529,1.47892 -0.25802,2.05761 -0.0927,0.57156 -0.19674,1.08169 -0.30961,1.53178 -0.16126,0.63587 -0.36445,1.11169 -0.60634,1.44033 -0.23786,0.32865 -0.50232,0.50298 -0.81274,0.50297 -0.33865,10e-6 -0.59586,-0.19289 -0.76114,-0.57156 -0.16531,-0.38579 -0.24513,-0.96736 -0.24512,-1.7604 -1e-5,-0.37865 0.0153,-0.84447 0.0516,-1.3946 0.0363,-0.55012 0.0863,-1.16312 0.1548,-1.80613 0.0726,-0.70015 0.16126,-1.32743 0.25802,-1.92043 0.10078,-0.59298 0.21447,-1.13596 0.33543,-1.60037 0.15721,-0.65013 0.35557,-1.12595 0.59343,-1.44032 0.23785,-0.3215 0.51118,-0.4801 0.82565,-0.48011 z m 17.22249,0 c 0.33864,10e-6 0.58698,0.19291 0.74824,0.57156 0.16126,0.37152 0.24511,0.93737 0.24512,1.73753 -10e-6,0.37868 -0.0282,0.83592 -0.0645,1.37174 -0.0363,0.53585 -0.0863,1.12455 -0.1548,1.7604 -0.0806,0.7859 -0.1653,1.47892 -0.25802,2.05761 -0.0927,0.57156 -0.19674,1.08169 -0.30962,1.53178 -0.16126,0.63587 -0.36445,1.11169 -0.60634,1.44033 -0.23786,0.32865 -0.50232,0.50298 -0.81274,0.50297 -0.33865,10e-6 -0.59586,-0.19289 -0.76115,-0.57156 -0.16529,-0.38579 -0.24511,-0.96736 -0.24511,-1.7604 0,-0.37865 0.0153,-0.84447 0.0516,-1.3946 0.0363,-0.55012 0.0863,-1.16312 0.15481,-1.80613 0.0725,-0.70015 0.16126,-1.32743 0.25802,-1.92043 0.10078,-0.59298 0.21447,-1.13596 0.33541,-1.60037 0.15723,-0.65013 0.35558,-1.12595 0.59344,-1.44032 0.23785,-0.3215 0.51119,-0.4801 0.82564,-0.48011 z m 9.59815,1.16598 c -0.43137,10e-6 -0.82403,0.16719 -1.18687,0.50297 -0.36283,0.32865 -0.71438,0.85449 -1.04496,1.55464 l 0.20641,-1.7604 -2.18022,0 -1.819,16.57519 2.18022,0 0.69664,-6.31 c 0.22173,0.70015 0.49023,1.21885 0.81275,1.55463 0.32654,0.32865 0.72324,0.50298 1.18686,0.50298 0.52812,0 1.024,-0.24434 1.48359,-0.70875 0.46362,-0.46438 0.8716,-1.13454 1.23847,-2.03474 0.29026,-0.71445 0.51764,-1.50606 0.67084,-2.37769 0.15722,-0.87162 0.23221,-1.7761 0.23221,-2.69775 0,-1.4789 -0.22738,-2.64059 -0.67083,-3.49794 -0.44347,-0.85733 -1.04417,-1.30314 -1.80611,-1.30315 z m -0.87725,2.7892 c 0.36283,2e-5 0.63616,0.20863 0.82565,0.59442 0.19351,0.37867 0.28381,0.91736 0.28381,1.64609 0,1.40032 -0.17416,2.55202 -0.52892,3.45221 -0.35477,0.89307 -0.79744,1.34888 -1.34168,1.34888 -0.35477,0 -0.63698,-0.20004 -0.83855,-0.57156 -0.19755,-0.37865 -0.29672,-0.89734 -0.29672,-1.55464 0,-1.45746 0.17819,-2.6363 0.52893,-3.54366 0.35477,-0.91448 0.81113,-1.37172 1.36748,-1.37174 z m -18.08684,2.35482 c 0.35476,1e-5 0.63294,0.17576 0.83855,0.52584 0.20963,0.35008 0.30961,0.82447 0.30961,1.41746 0,0.83591 -0.14997,1.53892 -0.46442,2.10334 -0.31446,0.55727 -0.72002,0.82304 -1.19977,0.82304 -0.35477,0 -0.63295,-0.16004 -0.83855,-0.50297 -0.20561,-0.35008 -0.30962,-0.82447 -0.30961,-1.41747 -1e-5,-0.82875 0.16286,-1.53891 0.47732,-2.10333 0.31848,-0.57155 0.71518,-0.8459 1.18687,-0.84591 z"
         clip-path="url(#clipPath3804)"
         transform="matrix(1.2064095,0,0,1.2868813,-71.088906,-247.26085)" />
    </g>
  </g>
</svg>
