<?xml version="1.0" encoding="UTF-8" standalone="no"?>
<!-- Created with Inkscape (http://www.inkscape.org/) -->

<svg
   xmlns:dc="http://purl.org/dc/elements/1.1/"
   xmlns:cc="http://creativecommons.org/ns#"
   xmlns:rdf="http://www.w3.org/1999/02/22-rdf-syntax-ns#"
   xmlns:svg="http://www.w3.org/2000/svg"
   xmlns="http://www.w3.org/2000/svg"
   xmlns:sodipodi="http://sodipodi.sourceforge.net/DTD/sodipodi-0.dtd"
   xmlns:inkscape="http://www.inkscape.org/namespaces/inkscape"
   width="55"
   height="33"
   id="svg2"
   version="1.1"
   inkscape:version="0.48.5 r10040"
   sodipodi:docname="ico_channel_720_on.svg">
  <defs
     id="defs4">
    <clipPath
       clipPathUnits="userSpaceOnUse"
       id="clipPath3798">
      <rect
         style="fill:none;stroke:#000000;stroke-width:0.18911646;stroke-miterlimit:4;stroke-opacity:1;stroke-dasharray:none"
         id="rect3800"
         width="36.22723"
         height="25.702677"
         x="-371.17783"
         y="731.84326"
         transform="scale(-1,1)" />
    </clipPath>
    <clipPath
       clipPathUnits="userSpaceOnUse"
       id="clipPath3804">
      <rect
         style="fill:none;stroke:#000000;stroke-width:0.0918085;stroke-miterlimit:4;stroke-opacity:1;stroke-dasharray:none"
         id="rect3806"
         width="33.622112"
         height="17.081583"
         x="337.914"
         y="732.63666" />
    </clipPath>
  </defs>
  <sodipodi:namedview
     id="base"
     pagecolor="#ffffff"
     bordercolor="#666666"
     borderopacity="1.0"
     inkscape:pageopacity="0.0"
     inkscape:pageshadow="2"
     inkscape:zoom="11.099593"
     inkscape:cx="14.90821"
     inkscape:cy="7.2816157"
     inkscape:document-units="px"
     inkscape:current-layer="g3797"
     showgrid="false"
     inkscape:window-width="1920"
     inkscape:window-height="1005"
     inkscape:window-x="-9"
     inkscape:window-y="-9"
     inkscape:window-maximized="1"
     inkscape:showpageshadow="false" />
  <metadata
     id="metadata7">
    <rdf:RDF>
      <cc:Work
         rdf:about="">
        <dc:format>image/svg+xml</dc:format>
        <dc:type
           rdf:resource="http://purl.org/dc/dcmitype/StillImage" />
        <dc:title></dc:title>
      </cc:Work>
    </rdf:RDF>
  </metadata>
  <g
     inkscape:label="Ebene 1"
     inkscape:groupmode="layer"
     id="layer1"
     transform="translate(0,-1019.3622)">
    <g
       id="g3797"
       transform="translate(-329.62604,329.2233)">
      <rect
         y="692.09369"
         x="331.57071"
         height="29.05476"
         width="51.060802"
         id="rect2998"
         style="fill:none;stroke:#fcc024;stroke-width:3.94311023;stroke-opacity:1" />
      <g
         transform="matrix(0.2705624,0,0,0.21981669,331.46347,685.48891)"
         id="routenum"
         style="font-size:371.69000244px;fill:#fcc024;fill-opacity:1;overflow:visible">
        <path
           d="m 59.925,60.967 c -3.146,6.4827 -5.863,12.775 -8.151,18.876 -2.1927,6.1014 -4.004,12.441 -5.434,19.019 -1.43,6.578 -2.5264,13.585 -3.289,21.021 -0.7627,7.3407 -1.287,15.492 -1.573,24.453 H 29.037 c 0.28598,-8.6753 0.85798,-16.826 1.716,-24.453 0.85798,-7.722 2.002,-14.967 3.432,-21.736 1.5253,-6.7686 3.3843,-13.204 5.577,-19.305 2.1926,-6.1966 4.7666,-12.155 7.722,-17.875 H 18.598 V 48.526 h 41.327 v 12.441"
           inkscape:connector-curvature="0"
           id="path2992"
           style="text-align:center;fill:#fcc024;fill-opacity:1" />
        <path
           d="m 113.83,68.975 c -5e-5,1.9067 -0.14305,3.6704 -0.429,5.291 -0.28605,1.5254 -0.81038,3.1937 -1.573,5.005 -0.76271,1.8114 -1.8114,3.8611 -3.146,6.149 -1.3347,2.2881 -3.0984,5.0051 -5.291,8.151 -2.86,4.576 -5.6247,9.2474 -8.294,14.014 -2.574,4.6714 -4.6237,8.866 -6.149,12.584 -0.85802,1.9067 -1.4777,3.7657 -1.859,5.577 -0.38135,1.716 -0.66735,3.7657 -0.858,6.149 h 25.883 v 12.441 H 72.503 c 0.09533,-5.9107 0.47666,-11.249 1.144,-16.016 0.66733,-4.862 1.7637,-9.4856 3.289,-13.871 1.6207,-4.4806 3.718,-8.9136 6.292,-13.299 2.574,-4.3853 5.8153,-9.152 9.724,-14.3 3.2413,-4.3853 5.434,-7.8649 6.578,-10.439 1.2393,-2.5739 1.859,-5.0526 1.859,-7.436 -4e-5,-3.1459 -0.71504,-5.5769 -2.145,-7.293 -1.43,-1.8112 -3.3844,-2.7169 -5.863,-2.717 -2.3834,8.5e-5 -4.3377,0.76275 -5.863,2.288 -1.5254,1.4301 -2.3834,3.3367 -2.574,5.72 H 72.503 c 0.38133,-5.9106 2.431,-10.725 6.149,-14.443 3.8133,-3.8132 8.723,-5.7199 14.729,-5.72 2.9553,9.8e-5 5.6723,0.5721 8.151,1.716 2.574,1.0488 4.7666,2.5741 6.578,4.576 1.8113,1.9068 3.1936,4.2424 4.147,7.007 1.0486,2.6694 1.573,5.6247 1.573,8.866"
           inkscape:connector-curvature="0"
           id="path2994"
           style="text-align:center;fill:#fcc024;fill-opacity:1" />
        <path
           d="m 171.1,96.288 c -0.0954,2.6694 -0.19072,5.7677 -0.286,9.295 -6e-5,3.432 -0.19072,7.007 -0.572,10.725 -0.28605,3.6227 -0.85805,7.1977 -1.716,10.725 -0.76272,3.5273 -1.9544,6.6733 -3.575,9.438 -1.6207,2.7647 -3.718,5.005 -6.292,6.721 -2.574,1.6207 -5.8154,2.431 -9.724,2.431 -4.004,0 -7.3407,-0.81034 -10.01,-2.431 -2.6694,-1.716 -4.862,-3.9563 -6.578,-6.721 -1.6207,-2.7647 -2.86,-5.9107 -3.718,-9.438 -0.85801,-3.5273 -1.4777,-7.1023 -1.859,-10.725 -0.28601,-3.718 -0.42901,-7.293 -0.429,-10.725 -10e-6,-3.5273 -10e-6,-6.6256 0,-9.295 -10e-6,-2.8599 0.0477,-6.0536 0.143,-9.581 0.0953,-3.5273 0.33366,-7.1023 0.715,-10.725 0.47665,-3.7179 1.144,-7.2929 2.002,-10.725 0.95332,-3.5272 2.2403,-6.6256 3.861,-9.295 1.716,-2.7646 3.861,-4.9572 6.435,-6.578 2.574,-1.7159 5.72,-2.5739 9.438,-2.574 3.9086,9.8e-5 7.15,0.8581 9.724,2.574 2.6693,1.6208 4.8143,3.8134 6.435,6.578 1.6206,2.6694 2.86,5.7678 3.718,9.295 0.85795,3.4321 1.43,7.0071 1.716,10.725 0.38128,3.6227 0.57194,7.2454 0.572,10.868 -6e-5,3.5274 -6e-5,6.6734 0,9.438 m -12.87,0 c -4e-5,-1.144 -4e-5,-2.8123 0,-5.005 0.0953,-2.2879 0.0953,-4.7666 0,-7.436 -0.0954,-2.7646 -0.28604,-5.5769 -0.572,-8.437 -0.28604,-2.8599 -0.76271,-5.4816 -1.43,-7.865 -0.66737,-2.3833 -1.6207,-4.3376 -2.86,-5.863 -1.144,-1.5252 -2.6217,-2.3356 -4.433,-2.431 -1.8114,0.09542 -3.3367,0.90575 -4.576,2.431 -1.2394,1.5254 -2.2404,3.4797 -3.003,5.863 -0.76269,2.3834 -1.3347,5.0051 -1.716,7.865 -0.38136,2.8601 -0.61969,5.6724 -0.715,8.437 -0.0954,2.6694 -0.14302,5.1481 -0.143,7.436 -2e-5,2.1927 -2e-5,3.861 0,5.005 -2e-5,1.144 -2e-5,2.86 0,5.148 -2e-5,2.1927 0.0476,4.6714 0.143,7.436 0.0953,2.6694 0.33364,5.4817 0.715,8.437 0.38131,2.86 0.95331,5.4817 1.716,7.865 0.76264,2.288 1.716,4.1947 2.86,5.72 1.2393,1.5253 2.8123,2.288 4.719,2.288 1.8113,1e-5 3.289,-0.71499 4.433,-2.145 1.144,-1.5253 2.0496,-3.4796 2.717,-5.863 0.66729,-2.3833 1.144,-5.005 1.43,-7.865 0.38129,-2.86 0.61962,-5.6246 0.715,-8.294 0.0953,-2.7646 0.0953,-5.291 0,-7.579 -4e-5,-2.288 -4e-5,-4.004 0,-5.148"
           inkscape:connector-curvature="0"
           id="path2996"
           style="text-align:center;fill:#fcc024;fill-opacity:1" />
      </g>
    </g>
  </g>
</svg>
